<svg width="120" height="120" viewBox="0 0 120 120" fill="none" xmlns="http://www.w3.org/2000/svg">
  <!-- Alchemy circle stamp - mystical seal element -->
  <g stroke="#D4AF37" stroke-width="1" stroke-linecap="round" stroke-linejoin="round" fill="none">
    <!-- Outer circles -->
    <circle cx="60" cy="60" r="55" />
    <circle cx="60" cy="60" r="50" />
    <circle cx="60" cy="60" r="42" />

    <!-- Inner geometric pattern - simplified transmutation circle -->
    <circle cx="60" cy="60" r="30" />

    <!-- Four cardinal points -->
    <line x1="60" y1="15" x2="60" y2="25" />
    <line x1="60" y1="95" x2="60" y2="105" />
    <line x1="15" y1="60" x2="25" y2="60" />
    <line x1="95" y1="60" x2="105" y2="60" />

    <!-- Diagonal crosses -->
    <line x1="30" y1="30" x2="38" y2="38" />
    <line x1="90" y1="30" x2="82" y2="38" />
    <line x1="30" y1="90" x2="38" y2="82" />
    <line x1="90" y1="90" x2="82" y2="82" />

    <!-- Inner star/compass -->
    <path d="M 60 30 L 65 50 L 60 60 L 55 50 Z" />
    <path d="M 60 90 L 65 70 L 60 60 L 55 70 Z" />
    <path d="M 30 60 L 50 55 L 60 60 L 50 65 Z" />
    <path d="M 90 60 L 70 55 L 60 60 L 70 65 Z" />

    <!-- Center element -->
    <circle cx="60" cy="60" r="8" />
    <circle cx="60" cy="60" r="4" />

    <!-- Decorative dots between circles -->
    <circle cx="60" cy="10" r="1.5" fill="#D4AF37" />
    <circle cx="60" cy="110" r="1.5" fill="#D4AF37" />
    <circle cx="10" cy="60" r="1.5" fill="#D4AF37" />
    <circle cx="110" cy="60" r="1.5" fill="#D4AF37" />

    <!-- Alchemical symbols in quadrants (simplified) -->
    <path d="M 38 38 L 42 42" stroke-width="0.5" />
    <path d="M 38 42 L 42 38" stroke-width="0.5" />
    <path d="M 82 38 L 78 42" stroke-width="0.5" />
    <path d="M 82 42 L 78 38" stroke-width="0.5" />
  </g>
</svg>
