<svg width="60" height="100" viewBox="0 0 60 100" fill="none" xmlns="http://www.w3.org/2000/svg">
  <!-- Botanical sprig ornament - delicate plant element -->
  <g stroke="#D4AF37" stroke-width="1" stroke-linecap="round" stroke-linejoin="round" fill="none">
    <!-- Main stem -->
    <path d="M 30 95 Q 28 70 30 45 Q 32 20 30 5" />

    <!-- Left leaves -->
    <path d="M 30 20 Q 20 22 15 18" />
    <path d="M 30 35 Q 18 38 12 34" />
    <path d="M 30 50 Q 20 53 14 50" />
    <path d="M 30 65 Q 22 68 16 66" />
    <path d="M 30 80 Q 24 82 20 80" />

    <!-- Right leaves (mirrored) -->
    <path d="M 30 25 Q 40 27 45 23" />
    <path d="M 30 40 Q 42 43 48 39" />
    <path d="M 30 55 Q 40 58 46 55" />
    <path d="M 30 70 Q 38 73 44 71" />
    <path d="M 30 85 Q 36 87 40 85" />

    <!-- Top flower/bud -->
    <circle cx="30" cy="8" r="3" />
    <path d="M 27 8 L 24 6" />
    <path d="M 30 5 L 30 2" />
    <path d="M 33 8 L 36 6" />

    <!-- Leaf veins (subtle detail) -->
    <path d="M 22 22 L 18 20" stroke-width="0.5" />
    <path d="M 24 37 L 20 36" stroke-width="0.5" />
    <path d="M 38 27 L 42 25" stroke-width="0.5" />
  </g>
</svg>
